<?xml version="1.0" standalone="no"?><svg xmlns="http://www.w3.org/2000/svg" viewBox="0 0 1440 320"><path fill="#1f1f1f" fill-opacity="1" d="M0,288L21.8,266.7C43.6,245,87,203,131,154.7C174.5,107,218,53,262,74.7C305.5,96,349,192,393,218.7C436.4,245,480,203,524,202.7C567.3,203,611,245,655,234.7C698.2,224,742,160,785,133.3C829.1,107,873,117,916,144C960,171,1004,213,1047,240C1090.9,267,1135,277,1178,256C1221.8,235,1265,181,1309,181.3C1352.7,181,1396,235,1418,261.3L1440,288L1440,0L1418.2,0C1396.4,0,1353,0,1309,0C1265.5,0,1222,0,1178,0C1134.5,0,1091,0,1047,0C1003.6,0,960,0,916,0C872.7,0,829,0,785,0C741.8,0,698,0,655,0C610.9,0,567,0,524,0C480,0,436,0,393,0C349.1,0,305,0,262,0C218.2,0,175,0,131,0C87.3,0,44,0,22,0L0,0Z"></path></svg>